<svg xmlns="http://www.w3.org/2000/svg" width="98.78" height="90.994" viewBox="0 0 98.78 90.994">
  <g id="Group_1861" data-name="Group 1861" transform="translate(0 0)">
    <g id="Path_4888" data-name="Path 4888" transform="translate(0 0)">
      <path id="Path_9587" data-name="Path 9587" d="M541.985,1653.966v-12.158l2.684-.751a33.068,33.068,0,0,0,8.032-3.555,34.357,34.357,0,0,0,7.663-6.4,33.6,33.6,0,0,0,7.829-15.3,24.6,24.6,0,0,0,.585-3.989c.062-1.211.118-2.442.126-3.662a30.289,30.289,0,0,0-1.074-7.936,32.939,32.939,0,0,0-4.326-9.731,35.124,35.124,0,0,0-4.017-5.029,33.263,33.263,0,0,0-10.479-7.37,33.614,33.614,0,0,0-7.738-2.39,33.834,33.834,0,0,0-19.106,2.124,33.712,33.712,0,0,0-8.075,4.835,33.69,33.69,0,0,0-11.371,17.778c1.007.02,2.012.013,3.026.011,1.1-.005,2.2-.008,3.323.013l1.114.021-.343,1.061a4.71,4.71,0,0,1-.242.6c-3.18,5.328-6.327,10.591-9.475,15.85q-1.323,2.2-2.623,4.4l-1.242,2.011-.7-1.148c-.918-1.492-1.772-2.974-2.619-4.448-.529-.92-1.056-1.835-1.595-2.745-.928-1.568-1.831-3.141-2.735-4.715l-6.262-10.8,1.343-.076c.642-.037,1.231-.034,1.8-.028h4.8c.026-.1.05-.209.071-.317a44.487,44.487,0,0,1,4.512-12.75,45.673,45.673,0,0,1,5.363-7.931,48.789,48.789,0,0,1,3.805-4.033,45.906,45.906,0,0,1,21.355-11.347,43.847,43.847,0,0,1,5.471-.862,45.16,45.16,0,0,1,5.209-.225,47.4,47.4,0,0,1,7.318.727,45.861,45.861,0,0,1,6.683,1.724,46.584,46.584,0,0,1,18.66,12.072,45.529,45.529,0,0,1,11.871,24.484,44.5,44.5,0,0,1,.482,8.712,45.884,45.884,0,0,1-1.086,8.127,45.729,45.729,0,0,1-9.442,19.13,46.982,46.982,0,0,1-5.68,5.749,46.025,46.025,0,0,1-11.071,6.957,46.812,46.812,0,0,1-10.053,3.149c-.132.027-.277.042-.422.057Z" transform="translate(-482.344 -1562.972)" fill="#ffffff"/>
    </g>
    <g id="Path_4889" data-name="Path 4889" transform="translate(36.887 26.894)">
      <path id="Path_9588" data-name="Path 9588" d="M539.246,1612.125l2.453-2.057c1.914-1.6,3.817-3.226,5.75-4.807q2.808-2.292,5.654-4.521a67.037,67.037,0,0,1,7.156-4.964c.512-.3,1.057-.552,1.594-.816a2.161,2.161,0,0,1,.545-.179c.572-.109.944.237.805.8a5.851,5.851,0,0,1-.508,1.372,45.164,45.164,0,0,1-4.246,6.4q-3.389,4.344-6.858,8.625c-1.507,1.857-3.086,3.656-4.643,5.47q-1.586,1.851-3.2,3.671a7.106,7.106,0,0,1-2.442,1.929,4.854,4.854,0,0,1-5.782-1.421,71.66,71.66,0,0,1-6.225-8.375c-.934-1.5-1.773-3.068-2.643-4.615a6.119,6.119,0,0,1-.692-2.184c-.122-.891.37-1.378,1.27-1.261a8.352,8.352,0,0,1,2.653.9,59.969,59.969,0,0,1,8.466,5.411C538.631,1611.706,538.914,1611.894,539.246,1612.125Z" transform="translate(-525.943 -1594.76)" fill="#ffffff"/>
    </g>
    <g id="Path_4890" data-name="Path 4890" transform="translate(39.023 65.287)">
      <path id="Path_9589" data-name="Path 9589" d="M528.522,1640.139h5.866c.023,1.417,0,2.8.01,4.181s0,2.757,0,4.224a5.019,5.019,0,0,1,2.619-2,5.539,5.539,0,0,1,7.148,3.209,5.693,5.693,0,0,1,.2.643,10.933,10.933,0,0,1,.429,3.031c-.014,3.572,0,7.143,0,10.715,0,.227-.018.458-.03.727h-5.6c-.013-.245-.035-.476-.035-.7q0-5-.009-10.01a9.31,9.31,0,0,0-.136-1.588c-.208-1.175-.8-1.907-2.468-1.879a3.842,3.842,0,0,0-1.652.44.742.742,0,0,0-.457.76c.021,1.111,0,2.223,0,3.335v8.851c0,.249-.019.495-.029.79H528.6a.732.732,0,0,1-.059-.056.126.126,0,0,1-.035-.053,1.334,1.334,0,0,1-.037-.251v-24.116A1.291,1.291,0,0,1,528.522,1640.139Z" transform="translate(-528.468 -1640.139)" fill="#ffffff"/>
    </g>
    <g id="Path_4891" data-name="Path 4891" transform="translate(1.155 65.03)">
      <path id="Path_9590" data-name="Path 9590" d="M491.8,1660.208h9.289a25.491,25.491,0,0,1,.031,4.562c-.526.127-16.262.128-16.848,0a3.908,3.908,0,0,1-.046-.417V1661.4a.965.965,0,0,1,.294-.741c.76-.782,1.5-1.581,2.249-2.373,1.72-1.816,3.457-3.609,5.153-5.449a13.668,13.668,0,0,0,2.523-3.763,3.94,3.94,0,0,0,.227-2.926,2.32,2.32,0,0,0-2.01-1.717,2.4,2.4,0,0,0-2.148.546,3.317,3.317,0,0,0-.969,1.772c-.1.476-.137.966-.2,1.444a35.731,35.731,0,0,1-5.574.017,5.25,5.25,0,0,1,.147-2.312,7.549,7.549,0,0,1,6.212-5.83,10.412,10.412,0,0,1,6.912.9,6.5,6.5,0,0,1,3.545,5.233,7.4,7.4,0,0,1-1.014,5.036,18.4,18.4,0,0,1-1.7,2.245c-1.2,1.388-2.444,2.741-3.679,4.1-.645.712-1.322,1.4-1.97,2.1A4.465,4.465,0,0,0,491.8,1660.208Z" transform="translate(-483.709 -1639.835)" fill="#ffffff"/>
    </g>
    <g id="Path_4892" data-name="Path 4892" transform="translate(18.753 65.503)">
      <path id="Path_9591" data-name="Path 9591" d="M520.036,1655.413h2.444a17.776,17.776,0,0,1,0,4.295h-2.444v4.867a.342.342,0,0,1-.312.368h-5.048a1.354,1.354,0,0,1-.255-.063,11.746,11.746,0,0,1-.042-1.683c-.01-.555,0-1.112,0-1.667v-1.8c-1.077-.022-2.118,0-3.157-.01h-6.408c-.065-.59-.125-1.133-.181-1.678-.04-.38-.062-.764-.108-1.146a1.751,1.751,0,0,1,.28-1.208q4.448-7.079,8.865-14.179c.225-.359.413-.826.745-1.009a2.59,2.59,0,0,1,1.194-.062h3.656c.768,0,.77,0,.772.8v14.184Zm-5.7-7.54-.106-.049-4.544,7.549h4.65Z" transform="translate(-504.509 -1640.395)" fill="#ffffff"/>
    </g>
    <g id="Path_4893" data-name="Path 4893" transform="translate(70.402 48.837)">
      <path id="Path_9592" data-name="Path 9592" d="M572.165,1620.7h3.964a6.34,6.34,0,0,1,.886.1,1.857,1.857,0,0,1,1.651,1.709,4.877,4.877,0,0,1-.081,1.58,1.673,1.673,0,0,1-1.321,1.334,4.411,4.411,0,0,1-1.07.166q-4.036.018-8.073,0a2.314,2.314,0,0,1-2.478-2.925,2.094,2.094,0,0,1,2.224-1.956c.02,0,.04,0,.061,0,1.409-.021,2.818,0,4.229,0Z" transform="translate(-565.557 -1620.696)" fill="#ffffff"/>
    </g>
    <g id="Path_4894" data-name="Path 4894" transform="translate(47.09 15.311)">
      <path id="Path_9593" data-name="Path 9593" d="M538.018,1587.621v-3.964a5.9,5.9,0,0,1,.106-.951,1.778,1.778,0,0,1,1.443-1.526,3.646,3.646,0,0,1,1.958.049,1.788,1.788,0,0,1,1.237,1.353,4.771,4.771,0,0,1,.135,1.137q.018,3.907,0,7.812a4.748,4.748,0,0,1-.116,1.012,1.916,1.916,0,0,1-1.794,1.559c-.232.023-.468,0-.7.021a2.089,2.089,0,0,1-2.27-1.891,1.945,1.945,0,0,1,0-.381c0-1.259,0-2.519-.011-3.779v-.447Z" transform="translate(-538.003 -1581.07)" fill="#ffffff"/>
    </g>
  </g>
</svg>
