<svg id="chat_1_" data-name="chat (1)" xmlns="http://www.w3.org/2000/svg" width="28.614" height="28.614" viewBox="0 0 28.614 28.614">
  <defs>
    <style>
      .cls-1 {
        fill: #090824;
      }

      .cls-2 {
        fill: #21c89a;
      }
    </style>
  </defs>
  <path id="Path_10032" data-name="Path 10032" class="cls-1" d="M28.053,281.6a3.069,3.069,0,0,0-1.73-2.064,3.074,3.074,0,1,0-5.166,0,3.068,3.068,0,0,0-1.73,2.064L19.1,282.9l-.587-3.824a3.057,3.057,0,0,0-1.652-2.282,3.074,3.074,0,1,0-5.088,0,3.057,3.057,0,0,0-1.652,2.282l-.6,3.881-.34-1.364a3.069,3.069,0,0,0-1.73-2.064,3.074,3.074,0,1,0-5.166,0A3.069,3.069,0,0,0,.562,281.6l-.519,2.082A1.4,1.4,0,0,0,1.4,285.414H8.35a1.388,1.388,0,0,0,1.1-.537,1.423,1.423,0,0,0,.113-.169,1.394,1.394,0,0,0,1.214.706h7.081a1.395,1.395,0,0,0,1.2-.686,1.42,1.42,0,0,0,.1.149,1.388,1.388,0,0,0,1.1.537h6.952a1.4,1.4,0,0,0,1.356-1.735ZM4.874,276.472a1.4,1.4,0,1,1-1.4,1.4A1.4,1.4,0,0,1,4.874,276.472Zm-3.118,7.265L2.188,282a1.4,1.4,0,0,1,1.356-1.059H6.2A1.4,1.4,0,0,1,7.56,282l.433,1.735Zm12.563-10.06a1.4,1.4,0,1,1-1.4,1.4A1.4,1.4,0,0,1,14.319,273.677ZM11.1,283.737l.676-4.4a1.389,1.389,0,0,1,1.381-1.185h2.316a1.389,1.389,0,0,1,1.381,1.185l.676,4.4Zm12.636-7.265a1.4,1.4,0,1,1-1.4,1.4A1.4,1.4,0,0,1,23.74,276.472Zm-3.118,7.265L21.054,282a1.4,1.4,0,0,1,1.356-1.059h2.66A1.4,1.4,0,0,1,26.426,282l.433,1.735Z" transform="translate(0 -256.8)"/>
  <path id="Path_10033" data-name="Path 10033" class="cls-2" d="M26.658,3.353H17.325v-1.4A1.958,1.958,0,0,0,15.369,0H1.956A1.958,1.958,0,0,0,0,1.956V7.433A1.958,1.958,0,0,0,1.956,9.389H4.3V11.96a.838.838,0,0,0,1.319.687l4.655-3.258h1.012v1.4a1.958,1.958,0,0,0,1.956,1.956h5.091L22.991,16a.838.838,0,0,0,1.319-.687V12.742h2.347a1.958,1.958,0,0,0,1.956-1.956V5.309A1.958,1.958,0,0,0,26.658,3.353Zm.279,7.433a.28.28,0,0,1-.279.279H23.472a.838.838,0,0,0-.838.838v1.8l-3.553-2.486a.838.838,0,0,0-.481-.151H13.245a.28.28,0,0,1-.279-.279v-1.4h2.4a1.958,1.958,0,0,0,1.956-1.956V5.03h9.333a.28.28,0,0,1,.279.279ZM5.98,10.35v-1.8a.838.838,0,0,0-.838-.838H1.956a.28.28,0,0,1-.279-.279V1.956a.28.28,0,0,1,.279-.279H15.369a.28.28,0,0,1,.279.279V7.433a.28.28,0,0,1-.279.279H10.013a.838.838,0,0,0-.481.151Z"/>
</svg>
