<svg id="eql73jwptms1" xmlns="http://www.w3.org/2000/svg" xmlns:xlink="http://www.w3.org/1999/xlink" viewBox="0 0 200 200" shape-rendering="geometricPrecision" text-rendering="geometricPrecision"><style><![CDATA[#eql73jwptms4_tr {animation: eql73jwptms4_tr__tr 900ms linear infinite normal forwards}@keyframes eql73jwptms4_tr__tr { 0% {transform: translate(88.968334px,89.037024px) rotate(0deg);animation-timing-function: cubic-bezier(0.420000,0,0.580000,1)} 22.222222% {transform: translate(88.968334px,89.037024px) rotate(5deg);animation-timing-function: cubic-bezier(0.420000,0,0.580000,1)} 66.666667% {transform: translate(88.968334px,89.037024px) rotate(0deg)} 100% {transform: translate(88.968334px,89.037024px) rotate(0deg)} }#eql73jwptms6_ts {animation: eql73jwptms6_ts__ts 900ms linear infinite normal forwards}@keyframes eql73jwptms6_ts__ts { 0% {transform: translate(45.507515px,66.051851px) scale(1,1);animation-timing-function: cubic-bezier(0.420000,0,0.580000,1)} 22.222222% {transform: translate(45.507515px,66.051851px) scale(0.700000,0.700000);animation-timing-function: cubic-bezier(0.420000,0,0.580000,1)} 66.666667% {transform: translate(45.507515px,66.051851px) scale(1,1)} 100% {transform: translate(45.507515px,66.051851px) scale(1,1)} }#eql73jwptms8_ts {animation: eql73jwptms8_ts__ts 900ms linear infinite normal forwards}@keyframes eql73jwptms8_ts__ts { 0% {transform: translate(40.426516px,58.791352px) scale(1,1);animation-timing-function: cubic-bezier(0.420000,0,0.580000,1)} 22.222222% {transform: translate(40.426516px,58.791352px) scale(0.600000,0.600000);animation-timing-function: cubic-bezier(0.420000,0,0.580000,1)} 66.666667% {transform: translate(40.426516px,58.791352px) scale(1,1)} 100% {transform: translate(40.426516px,58.791352px) scale(1,1)} }#eql73jwptms11_to {animation: eql73jwptms11_to__to 900ms linear infinite normal forwards}@keyframes eql73jwptms11_to__to { 0% {transform: translate(37.960776px,52.982352px);animation-timing-function: cubic-bezier(0.420000,0,0.580000,1)} 22.222222% {transform: translate(31.157245px,53.095623px);animation-timing-function: cubic-bezier(0.420000,0,0.580000,1)} 66.666667% {transform: translate(37.960776px,52.982352px)} 100% {transform: translate(37.960776px,52.982352px)} }#eql73jwptms13_to {animation: eql73jwptms13_to__to 900ms linear infinite normal forwards}@keyframes eql73jwptms13_to__to { 0% {transform: translate(37.187161px,55.724589px);animation-timing-function: cubic-bezier(0.420000,0,0.580000,1)} 22.222222% {transform: translate(31.394765px,51.059870px);animation-timing-function: cubic-bezier(0.420000,0,0.580000,1)} 66.666667% {transform: translate(37.187161px,55.724589px)} 100% {transform: translate(37.187161px,55.724589px)} }#eql73jwptms15_to {animation: eql73jwptms15_to__to 900ms linear infinite normal forwards}@keyframes eql73jwptms15_to__to { 0% {transform: translate(37.187649px,55.735112px);animation-timing-function: cubic-bezier(0.420000,0,0.580000,1)} 22.222222% {transform: translate(31.806114px,61.611880px);animation-timing-function: cubic-bezier(0.420000,0,0.580000,1)} 66.666667% {transform: translate(37.187649px,55.735112px)} 100% {transform: translate(37.187649px,55.735112px)} }#eql73jwptms17_to {animation: eql73jwptms17_to__to 900ms linear infinite normal forwards}@keyframes eql73jwptms17_to__to { 0% {transform: translate(37.930516px,52.982352px);animation-timing-function: cubic-bezier(0.420000,0,0.580000,1)} 22.222222% {transform: translate(42.904913px,52.708366px);animation-timing-function: cubic-bezier(0.420000,0,0.580000,1)} 66.666667% {transform: translate(37.930516px,52.982352px)} 100% {transform: translate(37.930516px,52.982352px)} }#eql73jwptms19_to {animation: eql73jwptms19_to__to 900ms linear infinite normal forwards}@keyframes eql73jwptms19_to__to { 0% {transform: translate(37.205866px,55.724591px);animation-timing-function: cubic-bezier(0.420000,0,0.580000,1)} 22.222222% {transform: translate(39.947347px,49.478163px);animation-timing-function: cubic-bezier(0.420000,0,0.580000,1)} 66.666667% {transform: translate(37.205866px,55.724591px)} 100% {transform: translate(37.205866px,55.724591px)} }#eql73jwptms21_to {animation: eql73jwptms21_to__to 900ms linear infinite normal forwards}@keyframes eql73jwptms21_to__to { 0% {transform: translate(37.205387px,55.735115px);animation-timing-function: cubic-bezier(0.420000,0,0.580000,1)} 22.222222% {transform: translate(42.467750px,60.950973px);animation-timing-function: cubic-bezier(0.420000,0,0.580000,1)} 66.666667% {transform: translate(37.205387px,55.735115px)} 100% {transform: translate(37.205387px,55.735115px)} }]]></style><g id="eql73jwptms2" transform="matrix(1 0 0 1 -905.25800000000004 -319.32799999999997)"><g id="eql73jwptms3" transform="matrix(0.96600000000000 -0.25900000000000 0.25900000000000 0.96600000000000 896.25400000000002 343.50000000000000)"><g id="eql73jwptms4_tr" transform="translate(88.968334,89.037024) rotate(0)"><path id="eql73jwptms4" d="M71.300000,35.100000C71.163971,34.233317,70.753532,33.433119,70.129000,32.817000L65.700000,28.379000L65.700000,9.490000C65.697795,7.299448,63.922552,5.524205,61.732000,5.522000L42.839000,5.522000L38.477000,1.160000C36.926556,-0.386996,34.416444,-0.386996,32.866000,1.160000L28.500000,5.522000L9.615000,5.522000C7.424448,5.524205,5.649205,7.299448,5.647000,9.490000L5.647000,28.379000L1.212000,32.813000C0.586712,33.430178,0.176215,34.231892,0.041000,35.100000C0.012232,35.298681,-0.001474,35.499253,0,35.700000L0,72.118000C0.002205,74.308552,1.777448,76.083795,3.968000,76.086000L67.374000,76.086000C69.564552,76.083795,71.339795,74.308552,71.342000,72.118000L71.342000,35.700000C71.342000,35.700000,71.331000,35.300000,71.300000,35.100000ZM69.447000,39.055000C69.468000,39.042000,69.488000,39.027000,69.509000,39.013000L69.509000,68.776000L69.447000,68.735000L45.241000,53.894000ZM68.834000,34.111000C69.179598,34.447220,69.408440,34.885279,69.487000,35.361000C69.610069,36.207707,69.216735,37.046295,68.487000,37.493000L65.700000,39.200000L65.700000,30.969000ZM34.160000,2.455000C34.994987,1.621668,36.347013,1.621668,37.182000,2.455000L40.249000,5.522000L31.093000,5.522000ZM9.615000,7.354000L61.728000,7.354000C62.907386,7.355102,63.863346,8.310615,63.865000,9.490000L63.865000,40.327000L43.489000,52.819000L37.745000,49.300000C36.473517,48.515833,34.868483,48.515833,33.597000,49.300000L27.853000,52.821000L7.478000,40.327000L7.478000,9.490000C7.479654,8.310615,8.435614,7.355102,9.615000,7.354000ZM26.100000,53.894000L1.894000,68.735000L1.831000,68.776000L1.831000,39.010000L1.894000,39.052000ZM1.854000,35.359000C1.932699,34.883111,2.161921,34.444996,2.508000,34.109000L5.647000,30.970000L5.647000,39.200000L2.847000,37.486000C2.121782,37.038170,1.731654,36.202519,1.854000,35.359000ZM67.375000,74.259000L3.968000,74.259000C3.011152,74.259121,2.170847,73.623180,1.911023,72.702283C1.651200,71.781386,2.035194,70.800019,2.851000,70.300000L34.551000,50.863000C35.235483,50.440870,36.099517,50.440870,36.784000,50.863000L68.491000,70.300000C69.305799,70.800405,69.689015,71.781172,69.429309,72.701419C69.169603,73.621667,68.330192,74.257392,67.374000,74.258000Z" transform="translate(-35.670952,-38.042876)" fill="rgb(9,8,36)" stroke="none" stroke-width="1"/></g><g id="eql73jwptms5" transform="matrix(1 0 0 1 43.80200000000000 13.94600000000000)"><g id="eql73jwptms6_ts" transform="translate(45.507515,66.051851) scale(1,1)"><circle id="eql73jwptms6" r="13.985000" transform="translate(0,0)" fill="rgb(32,200,154)" stroke="none" stroke-width="1"/></g><g id="eql73jwptms7" transform="matrix(1 0 0 1 5.08100000000000 7.26100000000000)"><g id="eql73jwptms8_ts" transform="translate(40.426516,58.791352) scale(1,1)"><path id="eql73jwptms8" d="M6.205000,13.449000L0,7.244000L1.846000,5.400000L6.205000,9.757000L15.962000,0L17.808000,1.846000Z" transform="translate(-8.904000,-6.724500)" fill="rgb(255,255,255)" stroke="none" stroke-width="1"/></g></g></g><g id="eql73jwptms9" transform="matrix(1 0 0 1 0 21.32100000000000)"><g id="eql73jwptms10" transform="matrix(1 0 0 1 0 13.46700000000000)"><g id="eql73jwptms11_to" transform="translate(37.960776,52.982352)"><path id="eql73jwptms11" d="M11.900000,1.831000L0.916000,1.831000C0.422157,1.814676,0.030261,1.409613,0.030261,0.915500C0.030261,0.421387,0.422157,0.016324,0.916000,0L11.900000,0C12.234292,-0.011050,12.548031,0.160986,12.718448,0.448791C12.888866,0.736595,12.888866,1.094405,12.718448,1.382209C12.548031,1.670014,12.234292,1.842050,11.900000,1.831000Z" transform="translate(-6.438260,-0.915500)" fill="rgb(33,200,154)" stroke="none" stroke-width="1"/></g></g><g id="eql73jwptms12" transform="matrix(1 0 0 1 4.42300000000000 0)"><g id="eql73jwptms13_to" transform="translate(37.187161,55.724589)"><path id="eql73jwptms13" d="M10.431000,7.326000C10.270223,7.325017,10.112564,7.281549,9.974000,7.200000L0.458000,1.709000C0.166525,1.549474,-0.015706,1.244615,-0.018200,0.912350C-0.020695,0.580086,0.156938,0.272524,0.445985,0.108640C0.735032,-0.055244,1.090162,-0.049748,1.374000,0.123000L10.890000,5.617000C11.248910,5.824508,11.423702,6.247208,11.316166,6.647597C11.208630,7.047987,10.845579,7.326234,10.431000,7.326000Z" transform="translate(-5.664645,-3.657737)" fill="rgb(33,200,154)" stroke="none" stroke-width="1"/></g></g><g id="eql73jwptms14" transform="matrix(1 0 0 1 4.42300000000000 21.44100000000000)"><g id="eql73jwptms15_to" transform="translate(37.187649,55.735112)"><path id="eql73jwptms15" d="M0.917000,7.326000C0.502421,7.326234,0.139370,7.047987,0.031834,6.647597C-0.075702,6.247208,0.099090,5.824508,0.458000,5.617000L9.974000,0.123000C10.410582,-0.115943,10.958072,0.037430,11.206983,0.468406C11.455895,0.899382,11.315143,1.450251,10.890000,1.709000L1.374000,7.200000C1.235418,7.281505,1.077770,7.324970,0.917000,7.326000Z" transform="translate(-5.665133,-3.668261)" fill="rgb(33,200,154)" stroke="none" stroke-width="1"/></g></g><g id="eql73jwptms16" transform="matrix(1 0 0 1 102.75500000000000 13.46700000000000)"><g id="eql73jwptms17_to" transform="translate(37.930516,52.982352)"><path id="eql73jwptms17" d="M11.900000,1.831000L0.916000,1.831000C0.422157,1.814676,0.030261,1.409613,0.030261,0.915500C0.030261,0.421387,0.422157,0.016324,0.916000,0L11.900000,0C12.393843,0.016324,12.785739,0.421387,12.785739,0.915500C12.785739,1.409613,12.393843,1.814676,11.900000,1.831000Z" transform="translate(-6.408000,-0.915500)" fill="rgb(33,200,154)" stroke="none" stroke-width="1"/></g></g><g id="eql73jwptms18" transform="matrix(1 0 0 1 99.80300000000000 0)"><g id="eql73jwptms19_to" transform="translate(37.205866,55.724591)"><path id="eql73jwptms19" d="M0.917000,7.326000C0.502421,7.326234,0.139370,7.047987,0.031834,6.647597C-0.075702,6.247208,0.099090,5.824508,0.458000,5.617000L9.974000,0.123000C10.257838,-0.049748,10.612968,-0.055244,10.902015,0.108640C11.191062,0.272524,11.368695,0.580086,11.366200,0.912350C11.363706,1.244615,11.181475,1.549474,10.890000,1.709000L1.374000,7.200000C1.235455,7.281593,1.077783,7.325065,0.917000,7.326000Z" transform="translate(-5.683350,-3.657739)" fill="rgb(33,200,154)" stroke="none" stroke-width="1"/></g></g><g id="eql73jwptms20" transform="matrix(1 0 0 1 99.80300000000000 21.44000000000000)"><g id="eql73jwptms21_to" transform="translate(37.205387,55.735115)"><path id="eql73jwptms21" d="M10.431000,7.326000C10.270217,7.325065,10.112545,7.281593,9.974000,7.200000L0.458000,1.709000C0.032857,1.450251,-0.107895,0.899382,0.141017,0.468406C0.389928,0.037430,0.937418,-0.115943,1.374000,0.123000L10.890000,5.617000C11.248749,5.824415,11.423564,6.246846,11.316295,6.647115C11.209026,7.047383,10.846393,7.325781,10.432000,7.326000Z" transform="translate(-5.682872,-3.668263)" fill="rgb(33,200,154)" stroke="none" stroke-width="1"/></g></g></g></g><ellipse id="eql73jwptms22" rx="24.948000" ry="2.709000" transform="matrix(1 0 0 1 1006.30606479500022 460.43324700000011)" opacity="0.446" fill="rgb(112,112,112)" stroke="none" stroke-width="1"/></g></svg>