<svg id="eye" xmlns="http://www.w3.org/2000/svg" width="25.959" height="19.672" viewBox="0 0 25.959 19.672">
  <defs>
    <style>
      .cls-1 {
        fill: #090824;
      }

      .cls-2 {
        fill: #20c89a;
      }
    </style>
  </defs>
  <g id="Group_3240" data-name="Group 3240" transform="translate(0 0)">
    <g id="Group_3232" data-name="Group 3232" transform="translate(11.054 7.858)">
      <g id="Group_3231" data-name="Group 3231" transform="translate(0 0)">
        <circle id="Ellipse_3036" data-name="Ellipse 3036" class="cls-1" cx="1.977" cy="1.977" r="1.977"/>
      </g>
    </g>
    <g id="Group_3234" data-name="Group 3234" transform="translate(7.251 4.056)">
      <g id="Group_3233" data-name="Group 3233">
        <path id="Path_10024" data-name="Path 10024" class="cls-2" d="M148.794,142a5.78,5.78,0,1,0,5.78,5.78A5.786,5.786,0,0,0,148.794,142Zm0,9.532a3.752,3.752,0,1,1,3.752-3.752A3.756,3.756,0,0,1,148.794,151.534Z" transform="translate(-143.014 -142.002)"/>
      </g>
    </g>
    <g id="Group_3236" data-name="Group 3236" transform="translate(0 0)">
      <g id="Group_3235" data-name="Group 3235">
        <path id="Path_10025" data-name="Path 10025" class="cls-1" d="M25.3,69.626a19.6,19.6,0,0,0-4.53-4.8A12.9,12.9,0,0,0,13,62,12.967,12.967,0,0,0,5.226,64.82,19.741,19.741,0,0,0,.667,69.611a4.05,4.05,0,0,0,0,4.455,19.74,19.74,0,0,0,4.558,4.792A12.967,12.967,0,0,0,13,81.675c4.073,0,7.348-2.271,9.378-4.176a1.014,1.014,0,0,0-1.388-1.479c-1.763,1.654-4.581,3.627-7.99,3.627-4.923,0-9-4.208-10.64-6.695a2.024,2.024,0,0,1,0-2.226C4,68.239,8.079,64.031,13,64.031s8.98,4.212,10.6,6.7a2.029,2.029,0,0,1,0,2.213,1.014,1.014,0,1,0,1.7,1.107A4.058,4.058,0,0,0,25.3,69.626Z" transform="translate(0 -62.003)"/>
      </g>
    </g>
  </g>
</svg>
