<svg id="e0ie8tviknp1p1" xmlns="http://www.w3.org/2000/svg" xmlns:xlink="http://www.w3.org/1999/xlink" viewBox="0 0 200 200" shape-rendering="geometricPrecision" text-rendering="geometricPrecision"><style><![CDATA[#e0ie8tviknp1p2_ts {animation: e0ie8tviknp1p2_ts__ts 2500ms linear infinite normal forwards}@keyframes e0ie8tviknp1p2_ts__ts { 0% {transform: translate(105.028564px,100px) scale(0.700000,0.700000);animation-timing-function: cubic-bezier(0.420000,0,0.580000,1)} 16% {transform: translate(105.028564px,100px) scale(1,1);animation-timing-function: cubic-bezier(0.420000,0,0.580000,1)} 52% {transform: translate(105.028564px,100px) scale(0.700000,0.700000);animation-timing-function: cubic-bezier(0.420000,0,0.580000,1)} 60% {transform: translate(105.028564px,100px) scale(0.700000,0.700000)} 100% {transform: translate(105.028564px,100px) scale(0.700000,0.700000)} }#e0ie8tviknp1p2 {animation: e0ie8tviknp1p2_c_o 2500ms linear infinite normal forwards}@keyframes e0ie8tviknp1p2_c_o { 0% {opacity: 1;animation-timing-function: cubic-bezier(0.420000,0,0.580000,1)} 16% {opacity: 1;animation-timing-function: cubic-bezier(0.420000,0,0.580000,1)} 52% {opacity: 1;animation-timing-function: cubic-bezier(0.420000,0,0.580000,1)} 60% {opacity: 1} 100% {opacity: 1} }#e0ie8tviknp1p4_ts {animation: e0ie8tviknp1p4_ts__ts 2500ms linear infinite normal forwards}@keyframes e0ie8tviknp1p4_ts__ts { 0% {transform: translate(1.413752px,-13.231203px) scale(1,1)} 21.600000% {transform: translate(1.413752px,-13.231203px) scale(1,1);animation-timing-function: cubic-bezier(0.420000,0,0.580000,1)} 37.600000% {transform: translate(1.413752px,-13.231203px) scale(1.300000,1.300000);animation-timing-function: cubic-bezier(0.420000,0,0.580000,1)} 60% {transform: translate(1.413752px,-13.231203px) scale(1.300000,1.300000)} 100% {transform: translate(1.413752px,-13.231203px) scale(1,1)} }#e0ie8tviknp1p10_ts {animation: e0ie8tviknp1p10_ts__ts 2500ms linear infinite normal forwards}@keyframes e0ie8tviknp1p10_ts__ts { 0% {transform: translate(31.255010px,102.640801px) scale(1,1)} 21.600000% {transform: translate(31.255010px,102.640801px) scale(1,1);animation-timing-function: cubic-bezier(0.420000,0,0.580000,1)} 37.600000% {transform: translate(31.255010px,102.640801px) scale(1.400000,1.400000);animation-timing-function: cubic-bezier(0.420000,0,0.580000,1)} 60% {transform: translate(31.255010px,102.640801px) scale(1.400000,1.400000)} 100% {transform: translate(31.255010px,102.640801px) scale(1,1)} }#e0ie8tviknp1p16_to {animation: e0ie8tviknp1p16_to__to 2500ms linear infinite normal forwards}@keyframes e0ie8tviknp1p16_to__to { 0% {transform: translate(73.192010px,40.296392px)} 21.600000% {transform: translate(73.192010px,40.296392px);animation-timing-function: cubic-bezier(0.420000,0,0.580000,1)} 37.600000% {transform: translate(71.505000px,31.651504px);animation-timing-function: cubic-bezier(0.420000,0,0.580000,1)} 60% {transform: translate(71.505000px,31.651504px)} 100% {transform: translate(73.192010px,40.296392px)} }#e0ie8tviknp1p17_to {animation: e0ie8tviknp1p17_to__to 2500ms linear infinite normal forwards}@keyframes e0ie8tviknp1p17_to__to { 0% {transform: translate(-10.646000px,110.944801px)} 21.600000% {transform: translate(-10.646000px,110.944801px);animation-timing-function: cubic-bezier(0.420000,0,0.580000,1)} 37.600000% {transform: translate(-4.531210px,104.187701px);animation-timing-function: cubic-bezier(0.420000,0,0.580000,1)} 60% {transform: translate(-4.531210px,104.187701px)} 100% {transform: translate(-10.646000px,110.944801px)} }#e0ie8tviknp1p17_ts {animation: e0ie8tviknp1p17_ts__ts 2500ms linear infinite normal forwards}@keyframes e0ie8tviknp1p17_ts__ts { 0% {transform: scale(1,1)} 21.600000% {transform: scale(1,1);animation-timing-function: cubic-bezier(0.420000,0,0.580000,1)} 60% {transform: scale(1,1)} 100% {transform: scale(1,1)} }#e0ie8tviknp1p25_tr {animation: e0ie8tviknp1p25_tr__tr 2500ms linear infinite normal forwards}@keyframes e0ie8tviknp1p25_tr__tr { 0% {transform: translate(29.945500px,28.337500px) rotate(-8deg)} 21.600000% {transform: translate(29.945500px,28.337500px) rotate(-8deg);animation-timing-function: cubic-bezier(0.420000,0,0.580000,1)} 37.600000% {transform: translate(29.945500px,28.337500px) rotate(0deg);animation-timing-function: cubic-bezier(0.420000,0,0.580000,1)} 60% {transform: translate(29.945500px,28.337500px) rotate(0deg)} 100% {transform: translate(29.945500px,28.337500px) rotate(-8deg)} }#e0ie8tviknp1p25_ts {animation: e0ie8tviknp1p25_ts__ts 2500ms linear infinite normal forwards}@keyframes e0ie8tviknp1p25_ts__ts { 0% {transform: scale(1,1)} 21.600000% {transform: scale(1,1);animation-timing-function: cubic-bezier(0.420000,0,0.580000,1)} 37.600000% {transform: scale(1.100000,1.100000);animation-timing-function: cubic-bezier(0.420000,0,0.580000,1)} 60% {transform: scale(1.100000,1.100000)} 100% {transform: scale(1,1)} }#e0ie8tviknp1p26_tr {animation: e0ie8tviknp1p26_tr__tr 2500ms linear infinite normal forwards}@keyframes e0ie8tviknp1p26_tr__tr { 0% {transform: translate(29.945000px,28.324907px) rotate(-8deg)} 21.600000% {transform: translate(29.945000px,28.324907px) rotate(-8deg);animation-timing-function: cubic-bezier(0.420000,0,0.580000,1)} 37.600000% {transform: translate(29.945000px,28.324907px) rotate(0deg);animation-timing-function: cubic-bezier(0.420000,0,0.580000,1)} 60% {transform: translate(29.945000px,28.324907px) rotate(0deg)} 100% {transform: translate(29.945000px,28.324907px) rotate(-8deg)} }#e0ie8tviknp1p26_ts {animation: e0ie8tviknp1p26_ts__ts 2500ms linear infinite normal forwards}@keyframes e0ie8tviknp1p26_ts__ts { 0% {transform: scale(1.100000,1.100000)} 21.600000% {transform: scale(1.100000,1.100000);animation-timing-function: cubic-bezier(0.420000,0,0.580000,1)} 60% {transform: scale(1.100000,1.100000)} 100% {transform: scale(1.100000,1.100000)} }#e0ie8tviknp1p30_to {animation: e0ie8tviknp1p30_to__to 2500ms linear infinite normal forwards}@keyframes e0ie8tviknp1p30_to__to { 0% {transform: translate(-578.702990px,-235.826608px)} 21.600000% {transform: translate(-578.702990px,-235.826608px);animation-timing-function: cubic-bezier(0.420000,0,0.580000,1)} 37.600000% {transform: translate(-580.390000px,-244.471496px);animation-timing-function: cubic-bezier(0.420000,0,0.580000,1)} 60% {transform: translate(-580.390000px,-244.471496px)} 100% {transform: translate(-578.702990px,-235.826608px)} }#e0ie8tviknp1p31_to {animation: e0ie8tviknp1p31_to__to 2500ms linear infinite normal forwards}@keyframes e0ie8tviknp1p31_to__to { 0% {transform: translate(1.687010px,19.515392px)} 21.600000% {transform: translate(1.687010px,19.515392px);animation-timing-function: cubic-bezier(0.420000,0,0.580000,1)} 37.600000% {transform: translate(0px,10.870504px);animation-timing-function: cubic-bezier(0.420000,0,0.580000,1)} 60% {transform: translate(0px,10.870504px)} 100% {transform: translate(1.687010px,19.515392px)} }#e0ie8tviknp1p32_to {animation: e0ie8tviknp1p32_to__to 2500ms linear infinite normal forwards}@keyframes e0ie8tviknp1p32_to__to { 0% {transform: translate(1150.294340px,253.619503px)} 24% {transform: translate(1150.294340px,253.619503px);animation-timing-function: cubic-bezier(0.420000,0,0.580000,1)} 37.600000% {transform: translate(1146.136130px,253.619503px);animation-timing-function: cubic-bezier(0.420000,0,0.580000,1)} 60% {transform: translate(1146.136130px,253.619503px)} 100% {transform: translate(1150.294340px,253.619503px)} }#e0ie8tviknp1p33_to {animation: e0ie8tviknp1p33_to__to 2500ms linear infinite normal forwards}@keyframes e0ie8tviknp1p33_to__to { 0% {transform: translate(914.541009px,-53.643660px)} 21.600000% {transform: translate(914.541009px,-53.643660px);animation-timing-function: cubic-bezier(0.420000,0,0.580000,1)} 37.600000% {transform: translate(912.512424px,-53.643660px);animation-timing-function: cubic-bezier(0.420000,0,0.580000,1)} 60% {transform: translate(912.512424px,-53.643660px)} 100% {transform: translate(914.541009px,-53.643660px)} }#e0ie8tviknp1p34_to {animation: e0ie8tviknp1p34_to__to 2500ms linear infinite normal forwards}@keyframes e0ie8tviknp1p34_to__to { 0% {transform: translate(914.544488px,12.346501px)} 21.600000% {transform: translate(914.544488px,12.346501px);animation-timing-function: cubic-bezier(0.420000,0,0.580000,1)} 37.600000% {transform: translate(913.302906px,12.346501px);animation-timing-function: cubic-bezier(0.420000,0,0.580000,1)} 60% {transform: translate(913.302906px,12.346501px)} 100% {transform: translate(914.544488px,12.346501px)} }#e0ie8tviknp1p35_to {animation: e0ie8tviknp1p35_to__to 2500ms linear infinite normal forwards}@keyframes e0ie8tviknp1p35_to__to { 0% {transform: translate(789.599505px,-59.192153px)} 21.600000% {transform: translate(789.599505px,-59.192153px);animation-timing-function: cubic-bezier(0.420000,0,0.580000,1)} 37.600000% {transform: translate(787.137635px,-59.192153px);animation-timing-function: cubic-bezier(0.420000,0,0.580000,1)} 60% {transform: translate(787.137635px,-59.192153px)} 100% {transform: translate(789.599505px,-59.192153px)} }#e0ie8tviknp1p37_to {animation: e0ie8tviknp1p37_to__to 2500ms linear infinite normal forwards}@keyframes e0ie8tviknp1p37_to__to { 0% {transform: translate(0.529000px,16.629300px)} 21.600000% {transform: translate(0.529000px,16.629300px);animation-timing-function: cubic-bezier(0.420000,0,0.580000,1)} 37.600000% {transform: translate(6.643790px,9.872200px);animation-timing-function: cubic-bezier(0.420000,0,0.580000,1)} 60% {transform: translate(6.643790px,9.872200px)} 100% {transform: translate(0.529000px,16.629300px)} }#e0ie8tviknp1p37_ts {animation: e0ie8tviknp1p37_ts__ts 2500ms linear infinite normal forwards}@keyframes e0ie8tviknp1p37_ts__ts { 0% {transform: scale(1,1)} 21.600000% {transform: scale(1,1);animation-timing-function: cubic-bezier(0.420000,0,0.580000,1)} 60% {transform: scale(1,1)} 100% {transform: scale(1,1)} }]]></style><g id="e0ie8tviknp1p2_ts" transform="translate(105.028564,100) scale(0.700000,0.700000)"><g id="e0ie8tviknp1p2" transform="translate(-1225.084290,-231.749504)"><g id="e0ie8tviknp1p3" transform="matrix(1 0 0 1 1173.78999999999996 167.53700000000001)"><g id="e0ie8tviknp1p4_ts" transform="translate(1.413752,-13.231203) scale(1,1)"><g id="e0ie8tviknp1p4" transform="translate(0,0)"><path id="e0ie8tviknp1p5" d="M52.128000,28.882000L44.855000,23.100000L2.554000,23.100000C1.876198,23.099735,1.226278,22.830157,0.747281,22.350597C0.268285,21.871038,-0.000531,21.220801,0,20.543000L0,2.555000C-0,1.144303,1.143303,0.000552,2.554000,0L68.530000,0C69.207628,-0,69.857502,0.269187,70.336658,0.748342C70.815813,1.227498,71.085000,1.877372,71.085000,2.555000L71.085000,20.543000C71.085531,21.220975,70.816578,21.871363,70.337365,22.350951C69.858152,22.830539,69.207975,23.100000,68.530000,23.100000L52.589000,23.100000L52.589000,28.660000C52.589000,28.735495,52.558942,28.807884,52.505465,28.861173C52.451988,28.914462,52.379495,28.944266,52.304000,28.944000C52.239970,28.944065,52.177852,28.922182,52.128000,28.882000Z" fill="rgb(168,178,168)" stroke="rgba(0,0,0,0)" stroke-width="1" stroke-miterlimit="10"/><g id="e0ie8tviknp1p6" transform="matrix(1 0 0 1 10.55100000000000 7.92400000000000)"><g id="e0ie8tviknp1p7"><line id="e0ie8tviknp1p8" x1="0" y1="0" x2="45.584000" y2="0" fill="none" stroke="rgb(253,252,255)" stroke-width="1.936000" stroke-linecap="round" stroke-linejoin="round"/><line id="e0ie8tviknp1p9" x1="0" y1="0" x2="16.860000" y2="0" transform="matrix(1 0 0 1 0 6.19400000000000)" fill="none" stroke="rgb(253,252,255)" stroke-width="1.936000" stroke-linecap="round" stroke-linejoin="round"/></g></g></g></g><g id="e0ie8tviknp1p10_ts" transform="translate(31.255010,102.640801) scale(1,1)"><g id="e0ie8tviknp1p10" transform="translate(0,0)"><path id="e0ie8tviknp1p11" d="M2.554000,30.335000C1.876372,30.334735,1.226603,30.065294,0.747635,29.585951C0.268667,29.106608,-0.000265,28.456628,0,27.779000L0,8.681000C-0,7.270303,1.143303,6.126552,2.554000,6.126000L47.009000,6.126000L54.632000,0.066000C54.722049,-0.002740,54.843140,-0.014892,54.945053,0.034584C55.046965,0.084060,55.112315,0.186725,55.114000,0.300000L55.114000,6.126000L71.943000,6.126000C72.620975,6.125469,73.271363,6.394422,73.750951,6.873635C74.230539,7.352848,74.500000,8.003025,74.500000,8.681000L74.500000,27.781000C74.500000,28.458628,74.230813,29.108502,73.751658,29.587658C73.272502,30.066813,72.622628,30.336000,71.945000,30.336000Z" transform="matrix(-1 0 -0 -1 74.49800000000000 30.33400000000000)" fill="rgb(168,178,168)" stroke="rgba(0,0,0,0)" stroke-width="1" stroke-miterlimit="10"/><g id="e0ie8tviknp1p12" transform="matrix(1 0 0 1 13.36300000000000 8.30400000000000)"><g id="e0ie8tviknp1p13"><line id="e0ie8tviknp1p14" x1="0" y1="0" x2="47.773000" y2="0" fill="none" stroke="rgb(253,252,255)" stroke-width="1.936000" stroke-linecap="round" stroke-linejoin="round"/><line id="e0ie8tviknp1p15" x1="0" y1="0" x2="17.670000" y2="0" transform="matrix(1 0 0 1 0 6.49200000000000)" fill="none" stroke="rgb(253,252,255)" stroke-width="1.936000" stroke-linecap="round" stroke-linejoin="round"/></g></g></g></g><g id="e0ie8tviknp1p16_to" transform="translate(73.192010,40.296392)"><rect id="e0ie8tviknp1p16" width="32.561000" height="32.561000" rx="4" ry="4" transform="translate(0,0)" fill="rgb(32,200,154)" stroke="none" stroke-width="1"/></g><g id="e0ie8tviknp1p17_to" transform="translate(-10.646000,110.944801)"><g id="e0ie8tviknp1p17_ts" transform="scale(1,1)"><rect id="e0ie8tviknp1p17" width="30.335000" height="30.335000" rx="4" ry="4" transform="translate(0,0)" fill="rgb(32,200,154)" stroke="none" stroke-width="1"/></g></g><g id="e0ie8tviknp1p18" transform="matrix(1 0 0 1 1.04000000000000 32.40700000000000)"><g id="e0ie8tviknp1p19"><g id="e0ie8tviknp1p20"><g id="e0ie8tviknp1p21"><g id="e0ie8tviknp1p22"><g id="e0ie8tviknp1p23"><g id="e0ie8tviknp1p24"><g id="e0ie8tviknp1p25_tr" transform="translate(29.945500,28.337500) rotate(-8)"><g id="e0ie8tviknp1p25_ts" transform="scale(1,1)"><path id="e0ie8tviknp1p25" d="M7.054000,0L52.836000,0C56.732369,0,59.891000,3.158631,59.891000,7.055000L59.891000,49.620000C59.891000,53.516369,56.732369,56.675000,52.836000,56.675000L9.305000,56.675000C4.165990,56.675000,0,52.509010,0,47.370000L0,7.054000C0,5.183163,0.743187,3.388950,2.066069,2.066069C3.388950,0.743187,5.183163,0,7.054000,0Z" transform="translate(-29.945500,-28.337500)" fill="none" stroke="rgb(168,178,168)" stroke-width="4"/></g></g></g></g></g></g></g></g><g id="e0ie8tviknp1p26_tr" transform="translate(29.945000,28.324907) rotate(-8)"><g id="e0ie8tviknp1p26_ts" transform="scale(1.100000,1.100000)"><path id="e0ie8tviknp1p26" d="M30.537000,21.055000C29.348652,20.033173,28.012528,19.197042,26.574000,18.575000C26.144044,18.339814,25.618363,18.366411,25.214340,18.643792C24.810317,18.921172,24.596620,19.402193,24.661619,19.887940C24.726617,20.373687,25.059263,20.781601,25.522000,20.943000C26.720963,21.458329,27.835200,22.151820,28.827000,23C29.941577,23.982456,30.579193,25.397235,30.577000,26.883000L30.577000,29.283000C30.577000,29.627781,30.440036,29.958442,30.196239,30.202239C29.952442,30.446036,29.621781,30.583000,29.277000,30.583000L3.887000,30.583000C3.542219,30.583000,3.211558,30.446036,2.967761,30.202239C2.723964,29.958442,2.587000,29.627781,2.587000,29.283000L2.587000,26.883000C2.585819,25.396604,3.224938,23.981723,4.341000,23C5.650000,21.850000,9.464000,19.174000,16.584000,19.174000C21.282575,19.179962,25.295030,15.784214,26.066047,11.149327C26.837064,6.514440,24.140047,2.002567,19.692583,0.487078C15.245119,-1.028411,10.354278,0.897874,8.134775,5.039185C5.915273,9.180495,7.019401,14.319736,10.744000,17.184000C7.756165,17.767346,4.964926,19.098457,2.631000,21.053000C0.956167,22.527794,-0.002470,24.652391,0,26.884000L0,29.284000C0.002205,31.429817,1.741183,33.168795,3.887000,33.171000L29.281000,33.171000C31.426817,33.168795,33.165795,31.429817,33.168000,29.284000L33.168000,26.884000C33.170183,24.652740,32.211571,22.528564,30.537000,21.054000ZM9.588000,9.588000C9.625555,6.378556,11.808724,3.592228,14.916000,2.788000C15.460578,2.647169,16.021565,2.579904,16.584000,2.588000C20.449993,2.588000,23.584000,5.722007,23.584000,9.588000C23.584000,13.453993,20.449993,16.588000,16.584000,16.588000C12.718007,16.588000,9.584000,13.453993,9.584000,9.588000ZM9.588000,9.588000" transform="translate(-16.584000,-16.571907)" fill="rgb(32,200,154)" stroke="none" stroke-width="1"/></g></g></g><g id="e0ie8tviknp1p27" transform="matrix(1 0 0 1 78.28200000000000 36.11700000000000)"><g id="e0ie8tviknp1p28"><g id="e0ie8tviknp1p29" transform="matrix(1 0 0 1 6.13100000000000 0)"><g id="e0ie8tviknp1p30_to" transform="translate(-578.702990,-235.826608)"><path id="e0ie8tviknp1p30" d="M580.513000,264.033000C583.850000,264.090000,587.229000,264.133000,590.298000,263.923000C591.270000,263.855000,592.109000,262.312000,590.929000,261.823000C591.454657,261.638826,591.890034,261.260689,592.146000,260.766000C592.255260,260.505326,592.254047,260.211470,592.142639,259.951707C592.031231,259.691943,591.819169,259.488517,591.555000,259.388000C592.712000,259.675000,593.169000,257.838000,592.266000,257.245000C592.764936,256.853885,593.110712,256.300007,593.243000,255.680000C593.364094,255.047811,593.086524,254.405831,592.543000,254.061000C592.165951,253.894833,591.753978,253.823424,591.343000,253.853000L587.180000,253.823000C587.556000,251.651000,587.669000,249.284000,586.565000,247.376000C586.233000,246.801000,585.339000,246.113000,584.630000,246.555000C583.966000,246.970000,584.150000,248,584.183000,248.650000C584.285330,251.416214,582.821463,254.004376,580.398000,255.342000C577.974537,256.679624,580.548000,261.100000,580.513000,264.033000Z" transform="translate(0,0)" fill="rgb(228,228,228)" stroke="none" stroke-width="1"/></g></g><g id="e0ie8tviknp1p31_to" transform="translate(1.687010,19.515392)"><rect id="e0ie8tviknp1p31" width="5.044000" height="8.682000" rx="0" ry="0" transform="translate(0,0)" fill="rgb(228,228,228)" stroke="none" stroke-width="1"/></g></g></g></g><g id="e0ie8tviknp1p32_to" transform="translate(1150.294340,253.619503)"><path id="e0ie8tviknp1p32" d="M6.234000,13.506000C6.234000,14.079824,6.699176,14.545000,7.273000,14.545000C7.846824,14.545000,8.312000,14.079824,8.312000,13.506000C8.314756,10.638023,10.639023,8.313756,13.507000,8.311000C14.080824,8.311000,14.546000,7.845824,14.546000,7.272000C14.546000,6.698176,14.080824,6.233000,13.507000,6.233000C10.639413,6.230245,8.315307,3.906586,8.312000,1.039000C8.312000,0.465176,7.846824,0,7.273000,0C6.699176,0,6.234000,0.465176,6.234000,1.039000C6.231244,3.906977,3.906977,6.231244,1.039000,6.234000C0.667801,6.234000,0.324799,6.432032,0.139200,6.753500C-0.046400,7.074968,-0.046400,7.471032,0.139200,7.792500C0.324799,8.113968,0.667801,8.312000,1.039000,8.312000C3.906587,8.314755,6.230693,10.638414,6.234000,13.506000ZM7.273000,4.782000C7.888688,5.801726,8.743274,6.656312,9.763000,7.272000C8.743274,7.887688,7.888688,8.742274,7.273000,9.762000C6.657312,8.742274,5.802726,7.887688,4.783000,7.272000C5.802726,6.656312,6.657312,5.801726,7.273000,4.782000Z" transform="translate(0,0)" fill="rgb(32,200,154)" stroke="none" stroke-width="1"/></g><g id="e0ie8tviknp1p33_to" transform="translate(914.541009,-53.643660)"><path id="e0ie8tviknp1p33" d="M377.400000,244.337000C375.404957,244.334796,373.788204,242.718043,373.786000,240.723000C373.786000,240.323698,373.462302,240,373.063000,240C372.663698,240,372.340000,240.323698,372.340000,240.723000C372.337796,242.718043,370.721043,244.334796,368.726000,244.337000C368.467697,244.337000,368.229015,244.474803,368.099864,244.698500C367.970712,244.922197,367.970712,245.197803,368.099864,245.421500C368.229015,245.645197,368.467697,245.783000,368.726000,245.783000C370.721043,245.785204,372.337796,247.401957,372.340000,249.397000C372.340000,249.796302,372.663698,250.120000,373.063000,250.120000C373.462302,250.120000,373.786000,249.796302,373.786000,249.397000C373.788204,247.401957,375.404957,245.785204,377.400000,245.783000C377.658303,245.783000,377.896985,245.645197,378.026136,245.421500C378.155288,245.197803,378.155288,244.922197,378.026136,244.698500C377.896985,244.474803,377.658303,244.337000,377.400000,244.337000ZM373.063000,246.793000C372.634784,246.083057,372.039943,245.488216,371.330000,245.060000C372.039943,244.631784,372.634784,244.036943,373.063000,243.327000C373.491216,244.036943,374.086057,244.631784,374.796000,245.060000C374.085111,245.488022,373.489251,246.082853,373.060000,246.793000Z" transform="translate(0,0)" fill="rgb(32,200,154)" stroke="none" stroke-width="1"/></g><g id="e0ie8tviknp1p34_to" transform="translate(914.544488,12.346501)"><path id="e0ie8tviknp1p34" d="M375.935000,243.662000C374.250112,243.660346,372.884654,242.294888,372.883000,240.610000C372.883000,240.391889,372.766639,240.190347,372.577750,240.081291C372.388861,239.972236,372.156139,239.972236,371.967250,240.081291C371.778361,240.190347,371.662000,240.391889,371.662000,240.610000C371.660346,242.294888,370.294888,243.660346,368.610000,243.662000C368.391889,243.662000,368.190347,243.778361,368.081291,243.967250C367.972236,244.156139,367.972236,244.388861,368.081291,244.577750C368.190347,244.766639,368.391889,244.883000,368.610000,244.883000C370.294888,244.884654,371.660346,246.250112,371.662000,247.935000C371.662000,248.153111,371.778361,248.354653,371.967250,248.463709C372.156139,248.572764,372.388861,248.572764,372.577750,248.463709C372.766639,248.354653,372.883000,248.153111,372.883000,247.935000C372.884654,246.250112,374.250112,244.884654,375.935000,244.883000C376.153111,244.883000,376.354653,244.766639,376.463709,244.577750C376.572764,244.388861,376.572764,244.156139,376.463709,243.967250C376.354653,243.778361,376.153111,243.662000,375.935000,243.662000ZM372.273000,245.735000C371.911482,245.135680,371.409320,244.633518,370.810000,244.272000C371.409270,243.910418,371.911418,243.408270,372.273000,242.809000C372.634550,243.408295,373.136705,243.910450,373.736000,244.272000C373.136687,244.633959,372.634550,245.136440,372.273000,245.736000Z" transform="translate(0,0)" fill="rgb(32,200,154)" stroke="none" stroke-width="1"/></g><g id="e0ie8tviknp1p35_to" transform="translate(789.599505,-59.192153)"><path id="e0ie8tviknp1p35" d="M378.300000,244.756000C376.112438,244.753245,374.339755,242.980562,374.337000,240.793000C374.347298,240.503153,374.198541,240.230806,373.949102,240.082828C373.699663,239.934850,373.389337,239.934850,373.139898,240.082828C372.890459,240.230806,372.741702,240.503153,372.752000,240.793000C372.749245,242.980562,370.976562,244.753245,368.789000,244.756000C368.499153,244.745702,368.226806,244.894459,368.078828,245.143898C367.930850,245.393337,367.930850,245.703663,368.078828,245.953102C368.226806,246.202541,368.499153,246.351298,368.789000,246.341000C370.976562,246.343755,372.749245,248.116438,372.752000,250.304000C372.741702,250.593847,372.890459,250.866194,373.139898,251.014172C373.389337,251.162150,373.699663,251.162150,373.949102,251.014172C374.198541,250.866194,374.347298,250.593847,374.337000,250.304000C374.339755,248.116438,376.112438,246.343755,378.300000,246.341000C378.589847,246.351298,378.862194,246.202541,379.010172,245.953102C379.158150,245.703663,379.158150,245.393337,379.010172,245.143898C378.862194,244.894459,378.589847,244.745702,378.300000,244.756000ZM373.544000,247.449000C373.074439,246.670707,372.422293,246.018561,371.644000,245.549000C372.422143,245.079247,373.074247,244.427143,373.544000,243.649000C374.013498,244.427343,374.665657,245.079502,375.444000,245.549000C374.667682,246.019392,374.017345,246.671445,373.549000,247.449000Z" transform="translate(0,0)" fill="rgb(32,200,154)" stroke="none" stroke-width="1"/></g><g id="e0ie8tviknp1p36" transform="matrix(1 0 0 1 1177.69000000000005 277.37599999999998)"><g id="e0ie8tviknp1p37_to" transform="translate(0.529000,16.629300)"><g id="e0ie8tviknp1p37_ts" transform="scale(1,1)"><path id="e0ie8tviknp1p37" d="M0,13.176000L0,14.564000C0,15.712000,2.800000,16.645000,6.242000,16.645000C9.684000,16.645000,12.484000,15.712000,12.484000,14.564000L12.484000,13.176000C11.141000,14.122000,8.684000,14.564000,6.242000,14.564000C3.800000,14.564000,1.343000,14.122000,0,13.176000ZM10.400000,4.161000C13.846000,4.161000,16.642000,3.228000,16.642000,2.080000C16.642000,0.932000,13.849000,0,10.400000,0C6.951000,0,4.161000,0.933000,4.161000,2.081000C4.161000,3.229000,6.957000,4.161000,10.400000,4.161000ZM0,9.766000L0,11.443000C0,12.591000,2.800000,13.524000,6.242000,13.524000C9.684000,13.524000,12.484000,12.591000,12.484000,11.443000L12.484000,9.766000C11.141000,10.871000,8.684000,11.443000,6.242000,11.443000C3.800000,11.443000,1.343000,10.871000,0,9.766000ZM13.524000,10.124000C15.387000,9.763000,16.645000,9.093000,16.645000,8.324000L16.645000,6.934000C15.694671,7.522336,14.631401,7.904582,13.524000,8.056000ZM6.242000,5.200000C2.800000,5.200000,0,6.365000,0,7.800000C0,9.235000,2.800000,10.400000,6.242000,10.400000C9.684000,10.400000,12.484000,9.236000,12.484000,7.800000C12.484000,6.364000,9.688000,5.200000,6.242000,5.200000ZM13.372000,7.030000C15.323000,6.679000,16.646000,5.990000,16.646000,5.200000L16.646000,3.813000C15.051391,4.709892,13.251523,5.178120,11.422000,5.172000C12.285963,5.519785,12.983808,6.185422,13.372000,7.032000Z" transform="translate(-8.323000,-8.322499)" fill="rgb(228,228,228)" stroke="none" stroke-width="1"/></g></g></g></g></g></svg>